<?xml version="1.0" encoding="UTF-8"?>
<svg id="_图层_1" data-name="图层_1" xmlns="http://www.w3.org/2000/svg" viewBox="0 0 1319.52 370.78">
  <defs>
    <style>
      .cls-1 {
        fill: #fff;
      }
    </style>
  </defs>
  <g>
    <g>
      <path class="cls-1" d="M1013.94,223.84c-57.36,11.64-113.72,5.6-169.15-16.81,0,0,2.31-5.49,2.57-14.42.31-10.06-2-24.52-13.19-40.45,32.53,17.5,44.14,6.05,37.62-30.5,20.1,48.3,42.42,41.62,66.89-18.65.73-1.82,2.37-6.95,2.37-6.95.04.23.92,5.18,1.26,7.03,12.13,64.16,32.7,75.21,61.96,31.74-13.59,34.55-4.46,48.06,30.88,37.31-14.09,13.41-19.22,27.13-20.9,37.06-1.49,8.81-.3,14.64-.3,14.64Z"/>
      <path class="cls-1" d="M938.08,128.41c-2.78,7.18-6.61,12.39-8.55,11.64-1.94-.75-1.26-7.18,1.52-14.36,2.78-7.18,6.61-12.39,8.55-11.64,1.94.75,1.26,7.18-1.52,14.36Z"/>
      <path class="cls-1" d="M923.5,147.32c-1.95,4.22-4.46,7.22-5.6,6.69-1.14-.53-.49-4.38,1.46-8.6,1.95-4.22,4.46-7.22,5.6-6.69,1.14.53.49,4.38-1.46,8.6Z"/>
      <path class="cls-1" d="M1013.94,223.84c-55.9,11.57-112.28,5.97-169.15-16.81,0,0,2.31-5.49,2.57-14.42l166.88,16.59c-1.49,8.81-.3,14.64-.3,14.64Z"/>
    </g>
    <circle class="cls-1" cx="942.15" cy="86.72" r="12.89"/>
    <circle class="cls-1" cx="871.44" cy="116.13" r="12.89"/>
    <circle class="cls-1" cx="1006.37" cy="129.54" r="12.89"/>
    <circle class="cls-1" cx="1033.69" cy="169.69" r="12.89"/>
    <circle class="cls-1" cx="834.39" cy="149.88" r="12.89"/>
  </g>
  <path class="cls-1" d="M134.83,123.15c-3.79,0-11.5-.2-18.29-4.53l-3.98,1.27c-5.65,1.8-11.82.61-16.4-3.15-6.59,1.01-12.98,1.96-18.57,2.77-5.09.74-10.25-.81-14.1-4.23-3.85-3.41-6-8.34-5.89-13.49l.29-12.96c.1-4.67,2.04-8.9,5.13-11.99-.07-1.31,0-2.63.23-3.95l6.92-39.92c1.31-7.56,7.36-13.29,14.79-14.34l.4-2.3c1.45-8.37,8.7-14.49,17.19-14.51l12.03-.03h.05c5.15,0,10.05,2.27,13.37,6.21.16.19.31.38.47.58,2.13-2.15,4.84-3.78,7.98-4.61l12.89-3.39c8.83-2.33,17.96,2.53,20.97,11.15.35.99.68,2.01.99,3.05h1.87s.03,0,.05,0c5.15,0,10.05,2.27,13.37,6.21,3.34,3.95,4.75,9.18,3.87,14.28l-3.4,19.59c-.61,3.52-2.25,6.64-4.57,9.08.13,1.56.05,3.14-.24,4.71-.45,2.41-1.4,4.66-2.76,6.64.37.5.71,1.01,1.03,1.55,2.36,4,3.03,8.78,1.86,13.27-2.77,10.69-8.54,32.94-34.88,33.02l-12.12.03c-.18,0-.37,0-.57,0Z"/>
  <path class="cls-1" d="M210.5,124.98c-5.15,0-10.05-2.27-13.37-6.21-3.02-3.58-4.47-8.22-4.06-12.85l-20.78.06h-.05c-5.15,0-10.05-2.27-13.37-6.21-3.34-3.95-4.75-9.18-3.87-14.28l2.26-13.06c.87-5.01,3.82-9.22,7.87-11.79-2.55-3-4.04-6.8-4.16-10.83-.16-5.67,2.44-11.07,6.97-14.48,6.75-5.08,14.19-14.67,18.95-24.43,3.66-7.51,12.12-11.38,20.2-9.25l13.28,3.5c3.63.96,6.82,3.05,9.13,5.91l34.07-.1h.05c5.15,0,10.05,2.27,13.37,6.21,3.34,3.95,4.75,9.18,3.87,14.28l-2.26,13.06c-.53,3.06-1.84,5.83-3.7,8.1-.04.47-.1.95-.19,1.42l-1.49,8.6c.41.4.8.82,1.17,1.26,3.34,3.95,4.75,9.18,3.87,14.28l-2.26,13.06c-1.45,8.37-8.7,14.49-17.19,14.51l-16.27.05-.81,4.65c-1.45,8.37-8.7,14.49-17.19,14.51l-13.98.04h-.05Z"/>
  <path class="cls-1" d="M313.3,120.5c-5.87,0-11.37-2.96-14.61-7.87-3.45,1.18-7.01,1.78-10.65,1.79h-.1c-9.45,0-18.03-4-24.17-11.28-7.77-9.21-10.79-22.81-8.28-37.32,5.35-30.86,35.16-55.11,67.86-55.21h.19c16.22,0,30.14,5.91,39.22,16.67,9.06,10.74,12.56,25.27,9.84,40.92-4.85,27.97-25.42,46.95-56.45,52.06-.96.16-1.91.23-2.85.23Z"/>
  <path class="cls-1" d="M27,248.09c-4.76,0-9.5-1.94-12.94-5.71-.87-.9-4.14-3.52-5.78-4.54C3.24,234.72.12,229.25,0,223.32c-.12-5.93,2.77-11.52,7.68-14.84.53-.36,1.07-.77,1.61-1.22-.05-1.23.03-2.48.24-3.72l10.59-61.09c1.45-8.37,8.7-14.49,17.19-14.51l35.89-.1h.05c4.13,0,8.09,1.46,11.21,4.06,3.18-4.56,8.45-7.47,14.31-7.49l13.42-.04h.05c5.15,0,10.05,2.27,13.37,6.21,3.34,3.95,4.75,9.18,3.87,14.28l-.88,5.07c.83.68,1.6,1.43,2.3,2.27,3.34,3.95,4.75,9.18,3.87,14.28l-2.17,12.5c-1.1,6.37-5.57,11.43-11.38,13.5l-4.5,25.98c-1.29,7.44-4.3,18.05-15.54,24.33-.03.02-.07.04-.1.06-7.95,4.38-16.49,4.99-23.79,5.01h-.05c-4.7,0-9.21-1.89-12.5-5.25-.58-.59-1.11-1.22-1.6-1.88l-4.82,2.23c-4.81,2.22-10.36,2.15-15.11-.19-.73-.36-1.43-.77-2.1-1.22-1.1.98-2.2,1.91-3.29,2.78-3.2,2.53-7.03,3.77-10.85,3.77Z"/>
  <path class="cls-1" d="M120.96,247.82c-5.15,0-10.05-2.27-13.37-6.21-3.34-3.95-4.75-9.18-3.87-14.28l6.15-35.44c.67-3.89,2.6-7.3,5.33-9.83-.41-.4-.79-.81-1.16-1.25-3.34-3.95-4.75-9.18-3.87-14.28l3.82-22.01c1.45-8.37,8.7-14.49,17.19-14.51l19.97-.06c2.38-2.22,5.41-3.81,8.85-4.42l15.39-2.75c6.8-1.21,13.48,1.68,17.32,7.05l19.3-.06h.05c5.15,0,10.05,2.27,13.37,6.21,3.34,3.95,4.75,9.18,3.87,14.28l-3.82,22.01c-1.07,6.18-5.31,11.14-10.87,13.31,2.18,3.59,3.01,7.87,2.28,12.07l-6.14,35.44c-1.45,8.37-8.7,14.49-17.19,14.51l-13.42.04h-.05c-2.95,0-5.81-.74-8.35-2.12l-29.55.08c-2.5,1.38-5.37,2.16-8.39,2.17l-12.77.04h-.05Z"/>
  <path class="cls-1" d="M218.85,247.44c-5.15,0-10.05-2.27-13.37-6.21-3.34-3.95-4.75-9.18-3.87-14.28l.59-3.4c-1.31-.89-2.5-1.96-3.54-3.19-3.34-3.95-4.75-9.18-3.87-14.28l2.15-12.41c1.2-6.9,6.33-12.27,12.86-13.95l1.74-10.03-.07-.08c-3.34-3.95-4.75-9.18-3.87-14.28l2.15-12.4c1.45-8.37,8.7-14.49,17.19-14.51l80.64-.23h.05c5.15,0,10.05,2.27,13.37,6.21,3.34,3.95,4.75,9.18,3.87,14.28l-2.15,12.4c-.92,5.29-4.15,9.68-8.54,12.2l-1.51,8.71c1.27.88,2.44,1.93,3.46,3.13,3.34,3.95,4.75,9.18,3.87,14.28l-2.15,12.41c-1.22,7.06-6.58,12.52-13.33,14.07-2.07,5.93-6.43,13.43-16.09,17.72-7.82,3.48-15.73,3.77-25.26,3.8h-.05c-6.67,0-12.47-3.73-15.42-9.22-2.97,5.53-8.8,9.2-15.37,9.22l-13.42.04h-.05Z"/>
  <path class="cls-1" d="M315.88,247.82c-2.81,0-5.6-.67-8.14-2.01-4.34-2.28-7.52-6.27-8.78-11-.35-1.33-1.86-4.27-2.68-5.26-4.07-4.41-5.56-10.55-4.02-16.34,1.54-5.79,5.98-10.36,11.7-12.15,1.41-.44,2.71-.89,3.92-1.36-.35-.4-.69-.82-1.01-1.26-.99-1.36-4.82-5.43-6.7-7-4.26-3.58-6.56-8.97-6.21-14.52.36-5.55,3.33-10.6,8.02-13.61,8.5-5.45,16.79-15.42,22.17-26.66,3.58-7.49,11.94-11.42,19.99-9.43l3.58.89c2.89-2.09,6.42-3.31,10.2-3.32l23.87-.07h.05c8.72,0,16.11,6.42,17.33,15.06,1.26,8.95,5.85,16.32,12.29,19.72,5.13,2.71,8.58,7.78,9.22,13.54.64,5.76-1.62,11.47-6.03,15.23-2.48,2.12-7.14,7.13-9.06,9.75-1.47,2-3.29,3.61-5.31,4.78-4.27,18.79-7.36,26.88-12.95,32.7-7.01,7.44-14.36,9.49-19.99,10.43-4.5.76-10.06.85-17.04.75-4.98-.07-9.69-2.27-12.96-6.03-.18-.21-.36-.43-.54-.65-4.44,2.49-9.42,4.77-15.02,6.78-1.91.69-3.91,1.03-5.9,1.03Z"/>
  <path class="cls-1" d="M401.99,246.64c-5.15,0-10.05-2.27-13.37-6.21-3.34-3.95-4.75-9.18-3.87-14.28l11.51-66.41c.08-.48.19-.96.31-1.43-.36-2-.38-4.07-.02-6.12l1.92-11.1c1.45-8.37,8.7-14.49,17.19-14.51l44.94-.13c2.01,0,4.03.34,5.9,1.01l32.51-.09h.05c5.15,0,10.05,2.27,13.37,6.21,3.34,3.95,4.75,9.18,3.87,14.28l-7.24,41.78c-.42,2.45-1.34,4.7-2.64,6.67.27.38.53.78.78,1.18,2.41,4,3.11,8.8,1.97,13.32-2.84,11.17-8.74,34.43-35.24,34.5l-10.72.03c-2.04,0-6.24.02-10.91-1.26-1.91.72-3.97,1.11-6.11,1.12l-10.72.03h-.05c-3.95,0-7.75-1.34-10.81-3.73-3.18,3.17-7.55,5.09-12.3,5.11l-10.26.03h-.05Z"/>
  <path class="cls-1" d="M552.42,246.39c-4.87,0-9.51-2.03-12.81-5.58-1.54.45-3.16.69-4.83.69l-10.46.03c-2.99,2.36-6.75,3.75-10.79,3.76l-11.37.03h-.05c-5.15,0-10.05-2.27-13.37-6.21-3.34-3.95-4.75-9.18-3.87-14.28l5.68-32.74c.03-.17.06-.33.09-.5.02-.86.1-1.72.25-2.58l1.75-10.07c.08-.47.18-.94.3-1.39.04-.47.1-.93.19-1.4l.22-1.28c-1.97-3.49-2.69-7.58-2-11.59l1.83-10.54c1.18-6.79,6.18-12.11,12.57-13.88,1.58-4.32,4.86-8.01,9.38-10l11.3-4.97c8.77-3.86,19.01.05,22.98,8.77.49,1.08,1.02,2.3,1.55,3.61,2.38-6.95,8.95-11.79,16.5-11.81l14.17-.04h.05c5.15,0,10.05,2.27,13.37,6.21,3.34,3.95,4.75,9.18,3.87,14.28l-1.52,8.75c3.47.9,6.62,2.86,8.98,5.65,3.34,3.95,4.75,9.18,3.87,14.28l-2.31,13.34c-1.45,8.37-8.7,14.49-17.19,14.51h-1.63s-5.27,30.4-5.27,30.4c-1.45,8.37-8.7,14.49-17.19,14.51l-14.17.04h-.05Z"/>
  <path class="cls-1" d="M592.36,243.86c-5.15,0-10.05-2.27-13.37-6.21-3.34-3.95-4.75-9.18-3.87-14.28l1.49-8.58c.98-5.66,4.62-10.29,9.5-12.71-.22-.23-.43-.47-.64-.72-3.34-3.95-4.75-9.18-3.87-14.28l1.41-8.11c.68-3.92,2.63-7.34,5.38-9.87-1.56-3.25-2.09-6.93-1.46-10.55l1.21-7c1.21-6.95,6.42-12.35,13.02-14,2.92-5.69,8.84-9.48,15.52-9.5l13.31-.04c3.21-3.42,7.75-5.52,12.72-5.54l13.8-.04h.05c4.82,0,9.41,1.99,12.7,5.46l13.51-.04h.05c5.15,0,10.05,2.27,13.37,6.21,1.32,1.57,2.34,3.34,3.04,5.22,1.63.98,3.11,2.23,4.36,3.71,3.34,3.95,4.75,9.18,3.87,14.28l-1.21,6.99c-.61,3.52-2.25,6.64-4.57,9.08,1.87,3.43,2.54,7.43,1.87,11.34l-1.41,8.11c-.98,5.66-4.62,10.3-9.5,12.71.22.23.43.47.64.72,3.34,3.95,4.75,9.18,3.87,14.28l-1.49,8.58c-1.45,8.37-8.7,14.48-17.19,14.51l-86.05.25h-.05Z"/>
  <path class="cls-1" d="M70.65,349c-.36,0-.73-.01-1.09-.03-5.81-.36-11.06-3.59-14-8.61l-5.24-8.93c-4.2-7.16-2.79-16.28,3.37-21.84,2.15-1.94,5.14-4.41,8.67-6.68-.5-.47-.98-.97-1.42-1.5-3.34-3.95-4.75-9.18-3.87-14.28l1.61-9.27c1.45-8.37,8.7-14.49,17.19-14.51l5.85-.02c1.69-2.67,4.1-4.86,6.98-6.3l9.35-4.66c8.26-4.11,18.29-1.11,22.93,6.86l.88,1.5c.39.66.79,1.34,1.19,2.03,3.76-.06,7.5,1.11,10.6,3.38l6.48,4.75c3.91,2.86,6.45,7.21,7.04,12.01.58,4.81-.85,9.64-3.96,13.35-2.19,2.62-4.59,5.26-7.16,7.9,2.19,1.25,4.13,2.99,5.63,5.13,3.86,5.49,4.24,12.71.97,18.58-1.08,1.93-2.35,4.69-2.72,5.74-1.81,7.34-8.14,12.7-15.71,13.26-5.3.39-14.82.8-21.59.82-6.3,0-13.41-.4-20.34-3.1-3.19,2.84-7.32,4.43-11.64,4.43ZM140,333.23c-.01.06-.03.12-.04.18.02-.06.03-.12.04-.18Z"/>
  <g>
    <path class="cls-1" d="M178.52,315.72c-3.68,0-7.12-1.81-9.2-4.85-2.08-3.04-2.53-6.92-1.18-10.36l4.97-12.7c-.05-.07-.09-.14-.14-.21-1.98-3.04-2.35-6.86-1.01-10.22l2.48-6.2c1.54-3.84,5.08-6.52,9.2-6.95,1.7-.18,3.33-1.05,3.73-1.35,1.92-1.43,4.24-2.2,6.63-2.21l6.19-.02h.03c3.67,0,7.1,1.81,9.19,4.83,2.09,3.03,2.54,6.9,1.22,10.33l-12.64,32.74c-1.65,4.29-5.77,7.12-10.37,7.14l-9.05.03h-.03Z"/>
    <path class="cls-1" d="M208.44,316.27c-8.53,0-13.42-3.67-16.02-6.75-2.69-3.18-5.56-8.86-4.01-17.83,1.18-6.8,4.14-13.79,8.14-19.19,5.96-8.05,14.16-12.5,23.1-12.53h.08c8.44,0,13.32,3.68,15.93,6.77,2.71,3.21,5.61,8.91,4.06,17.85h0c-.56,3.22-2.44,11.52-7.86,19.01-5.89,8.14-14.18,12.64-23.33,12.67h-.09Z"/>
    <path class="cls-1" d="M240,316.18c-8.53,0-13.43-3.67-16.03-6.75-2.69-3.18-5.56-8.86-4.01-17.83,1.18-6.8,4.14-13.79,8.14-19.19,5.96-8.05,14.16-12.5,23.1-12.53h.08c8.44,0,13.32,3.68,15.93,6.77,2.71,3.21,5.61,8.91,4.06,17.85-.56,3.22-2.44,11.52-7.86,19.01-5.89,8.14-14.18,12.64-23.33,12.67h-.08Z"/>
    <path class="cls-1" d="M266.47,315.13c-3.68,0-7.2-1.83-9.3-5-.21-.31-.87-1.09-1.15-1.37-3.1-2.87-4.28-7.22-3.1-11.28.9-3.1,3.11-5.59,5.95-6.93l1.2-6.9c-.98-2.06-1.32-4.4-.92-6.7l1.65-9.5c.92-5.33,5.54-9.23,10.95-9.25l30.47-.09h.03c3.28,0,6.4,1.45,8.52,3.96,2.13,2.52,3.03,5.85,2.47,9.1l-1.65,9.5c-.4,2.33-1.51,4.38-3.08,5.95l-1.23,7.1c2.04,2.1,3.21,4.96,3.15,8-.09,4.38-2.74,8.3-6.77,10.02l-5.37,2.29c-3.25,1.39-6.96,1.15-10-.63-1.21-.71-3.78-1.9-6.69-3.02-4.81,2.24-9.92,3.73-12.23,4.35-.96.26-1.93.38-2.9.38Z"/>
    <path class="cls-1" d="M311.24,314.88c-3.28,0-6.4-1.45-8.52-3.96-2.13-2.52-3.03-5.85-2.46-9.09l1.56-9.01c-.69-1.22-1.16-2.57-1.36-4.01-.07-.42-.39-1.73-.57-2.25-1.76-4.3-.67-9.26,2.75-12.42,2.7-2.5,5.82-6.93,7.93-11.29,2.43-5,8.17-7.45,13.47-5.74l4.02,1.3.08.03,19.92-.06h.03c3.28,0,6.4,1.45,8.52,3.96,2.13,2.52,3.03,5.85,2.47,9.1l-5.84,33.7c-.92,5.33-5.54,9.23-10.95,9.25h-4.36c-2.21,0-4.4-.65-6.22-1.86h-1.66c-1.87,1.42-4.2,2.25-6.69,2.26h-4.17c-.52,0-1.03-.02-1.53-.09-.66.12-1.34.19-2.03.19h-4.36s-.02.01-.03.01ZM299.92,286.62s.02.05.03.08c-.01-.03-.02-.05-.03-.08Z"/>
    <path class="cls-1" d="M356.89,314.71c-3.28,0-6.4-1.45-8.52-3.96-2.13-2.52-3.03-5.85-2.47-9.1l.19-1.11c-.24-.24-.47-.48-.69-.74-2.13-2.52-3.03-5.85-2.47-9.1l.6-3.47c.61-3.51,2.82-6.4,5.81-7.97-1.58-2.36-2.2-5.26-1.71-8.09l.57-3.28c.92-5.33,5.54-9.23,10.96-9.25l7.45-.02c1.89-1.46,4.26-2.33,6.8-2.34h4.67s.02-.01.03-.01c2.47,0,4.85.82,6.78,2.3l6.98-.02h.03c3.28,0,6.4,1.45,8.52,3.96,2.13,2.52,3.03,5.85,2.47,9.1l-.57,3.28c-.44,2.56-1.74,4.78-3.56,6.41-.09.27-.19.53-.3.79,1.98,2.49,2.81,5.71,2.27,8.85l-.6,3.47c-.61,3.5-2.81,6.38-5.77,7.95l-.52,2.98c-.92,5.33-5.54,9.23-10.95,9.25h-4.74c-1.59,0-3.19-.33-4.62-.98l-7.38.02c-1.44.68-3.03,1.05-4.71,1.06h-4.51s-.02.01-.03.01Z"/>
    <path class="cls-1" d="M399.31,314.51c-4.12,0-8.06-2.29-10-6.21-.09-.15-.26-.4-.37-.53-2.56-2.69-3.61-6.49-2.8-10.12.38-1.7,1.15-3.26,2.21-4.57.03-.32.07-.64.12-.96l.6-3.47c.27-1.57.86-3.01,1.7-4.27-1.44-2.23-2.05-4.92-1.68-7.59.46-3.29,2.36-6.21,5.18-7.96,2.48-1.53,5.12-4.3,6.72-7.04,2.62-4.5,8.02-6.58,12.99-5.01l4.24,1.34c1.04.33,2.01.8,2.89,1.39l15.07-.04h.03c3.28,0,6.4,1.45,8.52,3.96,2.13,2.52,3.03,5.85,2.47,9.1l-.6,3.43c-.54,3.12-2.35,5.76-4.85,7.41-.44,1-1.01,1.92-1.7,2.73-.04.26-.09.51-.13.75.13.18.25.37.37.56.1.16.21.31.28.4,3.1,2.71,4.47,6.92,3.52,10.96-2.44,10.37-7.87,15.65-16.14,15.67h-.05c-1.99,0-3.89-.35-5.64-1.02-1.36.39-2.79.52-4.23.37-.6-.06-1.18-.17-1.76-.33-1.4.63-2.94.98-4.56.99h-4.32c-1.38,0-2.73-.23-3.99-.71-1.34.53-2.73.79-4.11.79ZM389.25,308.19s.02.03.02.05c0-.02-.02-.03-.02-.05ZM388.99,307.83s.03.03.04.04c-.01-.01-.03-.03-.04-.04ZM440.64,287.89h0,0ZM440.23,287.51s0,0,0,0c0,0,0,0,0,0Z"/>
    <path class="cls-1" d="M239.32,370.24c-3.68,0-7.12-1.81-9.2-4.85-2.08-3.04-2.53-6.92-1.19-10.36l4.97-12.7c-.05-.07-.1-.14-.15-.22-1.98-3.04-2.35-6.85-1-10.22l2.48-6.2c1.54-3.84,5.08-6.52,9.2-6.95,1.7-.18,3.32-1.04,3.72-1.34,1.92-1.43,4.24-2.21,6.63-2.21l6.19-.02h.03c3.67,0,7.1,1.81,9.19,4.83,2.09,3.03,2.54,6.9,1.22,10.33l-12.64,32.75c-1.65,4.29-5.77,7.12-10.37,7.14l-9.05.03h-.03Z"/>
    <path class="cls-1" d="M269.24,370.78c-8.53,0-13.42-3.67-16.02-6.75-2.69-3.18-5.56-8.86-4.01-17.83,1.18-6.8,4.14-13.79,8.14-19.19,5.96-8.05,14.16-12.5,23.1-12.53h.08c8.44,0,13.32,3.68,15.93,6.77,2.71,3.21,5.61,8.91,4.06,17.85h0c-.56,3.22-2.44,11.52-7.86,19.01-5.89,8.14-14.18,12.64-23.33,12.67h-.09Z"/>
    <path class="cls-1" d="M300.79,370.69c-8.53,0-13.42-3.67-16.02-6.75-2.69-3.18-5.56-8.86-4.01-17.83,1.18-6.8,4.14-13.79,8.14-19.19,5.96-8.05,14.16-12.5,23.1-12.53h.08c8.44,0,13.32,3.68,15.93,6.77,2.71,3.21,5.61,8.91,4.06,17.85h0c-.56,3.22-2.44,11.52-7.86,19.01-5.89,8.14-14.18,12.64-23.33,12.67h-.09Z"/>
    <path class="cls-1" d="M332.34,370.6c-8.53,0-13.43-3.67-16.03-6.75-2.69-3.18-5.56-8.86-4.01-17.83,1.18-6.8,4.14-13.79,8.14-19.19,5.96-8.05,14.16-12.5,23.1-12.53h.08c8.44,0,13.32,3.68,15.93,6.77,2.71,3.21,5.61,8.91,4.06,17.85h0c-.56,3.22-2.44,11.52-7.86,19.01-5.89,8.14-14.18,12.64-23.33,12.67h-.08Z"/>
    <path class="cls-1" d="M377.23,369.38c-2.39,0-4.71-.77-6.61-2.17-.26.02-.52.03-.78.03h-2.83c-1.69,1.05-3.68,1.64-5.79,1.65h-3.9c-3.3,0-6.43-1.43-8.55-3.95s-3.03-5.85-2.46-9.1l2.31-13.32c.04-.24.09-.47.14-.7.03-.39.07-.77.14-1.16l.6-3.47c.05-.28.11-.57.18-.84-.76-1.9-1-4-.64-6.06l.64-3.67c.63-3.63,2.98-6.6,6.12-8.13,1.17-2.22,3.06-3.99,5.37-5.01l3.88-1.71c5.15-2.26,11.1-.33,13.98,4.34,2.02-2.96,5.41-4.87,9.19-4.88h4.63s.02-.01.03-.01c3.28,0,6.4,1.45,8.52,3.96,1.85,2.19,2.77,5,2.61,7.83.04.05.09.1.13.15,2.13,2.52,3.03,5.85,2.47,9.1l-.78,4.52c-.59,3.38-2.66,6.19-5.48,7.79l-1.7,9.82c-.4,2.33-1.63,9.41-9.12,12.93-3.94,1.88-8.22,2.05-12.28,2.06h-.03Z"/>
    <path class="cls-1" d="M403.58,369.3c-3.28,0-6.4-1.45-8.52-3.96-2.13-2.52-3.03-5.85-2.46-9.1l1.56-9.01c-.69-1.21-1.16-2.56-1.36-4-.07-.43-.39-1.73-.57-2.26-1.77-4.3-.67-9.26,2.75-12.42,2.7-2.5,5.82-6.93,7.93-11.29,2.43-5,8.17-7.46,13.46-5.74l4.02,1.3s.05.02.08.03l19.92-.06h.03c3.28,0,6.4,1.45,8.52,3.96,2.13,2.52,3.03,5.85,2.47,9.1l-5.84,33.69c-.92,5.33-5.54,9.23-10.95,9.25h-4.36s-.02.01-.03.01c-2.22,0-4.37-.66-6.18-1.87h-1.66c-1.87,1.42-4.2,2.25-6.69,2.26h-4.17c-.51,0-1.03-.02-1.54-.09-.66.12-1.34.19-2.03.19h-4.36s-.02.01-.03.01ZM392.27,341.05s.02.05.03.08c-.01-.03-.02-.05-.03-.08Z"/>
    <path class="cls-1" d="M448.94,369.25c-3.28,0-6.4-1.45-8.52-3.96-2.13-2.52-3.03-5.85-2.47-9.1l2.24-12.91c-.64-1.79-.82-3.74-.49-5.65l.23-1.3c-1.2-2.2-1.64-4.75-1.21-7.26l.75-4.32c.92-5.33,5.54-9.23,10.96-9.25l6.25-.02c2.03-2.9,5.38-4.76,9.12-4.77h4.86s.02-.01.03-.01c3.28,0,6.4,1.45,8.52,3.96.21.25.4.5.59.76h4.62s.02-.01.03-.01c3.28,0,6.4,1.45,8.52,3.96,2.13,2.52,3.03,5.85,2.47,9.1l-.75,4.32c-.43,2.46-1.64,4.61-3.35,6.22l-.41,2.35c-.32,1.84-1.08,3.51-2.16,4.91l-2.37,13.66c-.92,5.33-5.54,9.23-10.96,9.25h-5.01s-.02.01-.03.01c-1.92,0-3.79-.5-5.43-1.41l-5.75.02c-1.62.92-3.49,1.44-5.46,1.44h-4.78s-.02.01-.03.01Z"/>
    <path class="cls-1" d="M496.24,368.92c-3.28,0-6.4-1.45-8.52-3.96-.49-.59-.92-1.21-1.28-1.88-3.19-1.54-5.49-4.52-6.13-8.05-.07-.22-.26-.77-.8-2.01-1.86-4.22-.92-9.12,2.28-12.35-.49-1.63-.6-3.38-.3-5.1l.74-4.25c.18-1.04.5-2.03.95-2.95-.61-2.72-.18-5.6,1.24-8.04,1.7-2.92,4.64-4.92,7.98-5.42,5.47-.82,10.78-2.1,13.51-3.26,3.99-1.69,8.52-.89,11.68,1.87,1.88-1.44,4.22-2.28,6.74-2.29h4.55c3.29-.06,6.43,1.43,8.55,3.94,2.13,2.52,3.03,5.85,2.47,9.1l-5.15,29.68c-.41,2.35-1.65,9.49-9.33,12.97-3.9,1.77-8.26,1.93-12.4,1.94h-.03c-2.16,0-4.25-.62-6.03-1.77-1.75,1.14-3.84,1.8-6.05,1.81h-4.63s-.02.01-.03.01ZM480.26,354.8s.01.06.02.09c0-.03-.01-.06-.02-.09Z"/>
    <path class="cls-1" d="M558.47,368.5c-1.09,0-2.19-.03-3.28-.06-2.98-.1-5.79-1.38-7.81-3.56h-1.2c-1.98,1.77-4.58,2.83-7.4,2.84h-4.17s-.02.01-.03.01c-3.28,0-6.4-1.45-8.52-3.96-2.13-2.52-3.03-5.85-2.47-9.1l4.97-28.68c.7-4.05,3.54-7.28,7.24-8.6,1.92-4.63,6.75-7.48,11.84-6.77l4.89.68c.82.11,1.61.32,2.37.6,2.36-1.3,5.18-1.75,7.96-1.09l4.18.99c2.73.65,5.1,2.3,6.66,4.6,3.02.19,5.85,1.61,7.81,3.94,2.13,2.52,3.03,5.85,2.46,9.1-.13.77-.32,1.79-.49,2.54-4.27,21.1-5.69,26.48-9.71,30.74-3.64,3.92-7.61,5-10.27,5.46-.15.03-.3.05-.46.07-1.4.18-2.97.24-4.6.24Z"/>
  </g>
  <g>
    <path class="cls-1" d="M596.8,312.77c-3.4,0-6.79-.99-9.74-2.96l-.3-.2c-7.33-4.91-9.86-14.51-5.9-22.39l5.11-10.17-5.73-4.74c-4.84-4-7.16-10.29-6.08-16.47l.08-.47c1.45-8.37,8.7-14.48,17.19-14.51l12.62-.04,6.44-12.86c2.96-5.91,9-9.64,15.6-9.66h.4s.03,0,.04,0c8.63,0,15.97,6.29,17.29,14.82l1.17,7.58,8.35-.02h.05c5.16,0,10.05,2.28,13.38,6.22,3.34,3.96,4.75,9.19,3.86,14.29l-.08.47c-.84,4.8-3.64,9.03-7.73,11.68l-11.68,7.56,1.77,11.36c1.14,7.3-2.43,14.52-8.91,18.06l-.37.2c-6.29,3.43-14.05,2.68-19.56-1.9l-6.9-5.73-10.86,7.05c-2.9,1.88-6.22,2.82-9.53,2.82Z"/>
    <path class="cls-1" d="M658.06,323.42c-5.15,0-10.05-2.27-13.37-6.21-3.34-3.95-4.75-9.18-3.87-14.28l2.52-14.55c.94-5.4,4.28-9.86,8.82-12.35-.35-1.98-.37-4.03-.02-6.06l2.48-14.33c.22-1.28.58-2.51,1.06-3.67-.98-2.18-2.55-4.92-4.05-6.73-3.82-4.61-5.01-10.85-3.17-16.54,1.84-5.69,6.47-10.05,12.26-11.55,15.08-3.91,35.55-11.66,47.47-26.39,5.09-6.29,13.82-8.27,21.12-4.79l14.03,6.68c4.85,2.31,8.37,6.72,9.55,11.96.19.83.31,1.66.38,2.49,6.82,4.05,15.37,7.66,23.78,9.88,6.37,1.68,11.26,6.8,12.64,13.25s-.97,13.12-6.09,17.27c-2.59,2.1-7.14,6.82-9.89,10.21.05,1.22-.03,2.45-.24,3.68l-2.48,14.33c-.23,1.31-.6,2.57-1.09,3.75.1.12.21.24.31.36,3.34,3.95,4.75,9.18,3.87,14.28l-2.52,14.55c-1.45,8.37-8.7,14.49-17.19,14.51l-96.26.28h-.05Z"/>
    <path class="cls-1" d="M842.93,322.45c-4.39,0-13.56-.23-21.13-5.67l-6.18,1.97c-5.67,1.81-11.88.6-16.47-3.2-.33-.28-.65-.56-.96-.86-8.34,1.29-16.42,2.49-23.37,3.49-5.09.73-10.25-.81-14.1-4.23-3.85-3.41-6-8.34-5.89-13.49l.34-15.31c.12-5.18,2.49-9.83,6.2-12.97-.25-1.77-.22-3.59.09-5.39l8.18-47.16c1.44-8.32,8.62-14.42,17.05-14.51l.89-5.15c1.45-8.37,8.7-14.49,17.19-14.51l14.21-.04h.05c5.15,0,10.05,2.27,13.37,6.21,1.09,1.29,1.97,2.71,2.64,4.22,2.26-3.8,5.96-6.75,10.58-7.97l15.23-4.01c8.82-2.33,17.96,2.53,20.97,11.15.64,1.84,1.24,3.79,1.79,5.74h4.6c5.18,0,10.09,2.25,13.42,6.2,3.34,3.95,4.75,9.18,3.87,14.28l-4.01,23.14c-.7,4.03-2.74,7.53-5.62,10.09.34,2.02.33,4.1-.06,6.15-.61,3.21-2.09,6.15-4.24,8.51.99,1,1.85,2.13,2.58,3.37,2.36,4,3.03,8.77,1.86,13.27-3.07,11.86-9.47,36.55-38.14,36.63l-14.32.04c-.2,0-.4,0-.62,0Z"/>
    <path class="cls-1" d="M928.68,324.51c-4.54,0-8.87-1.76-12.11-4.87-1.17-.09-2.33-.3-3.48-.64-1.84-.53-3.55-1.36-5.09-2.42-2.27,1.58-4.59,3.02-6.97,4.33-5.38,2.96-11.92,2.87-17.23-.22-5.31-3.09-8.61-8.74-8.69-14.88-.05-1.89-1.11-7.94-1.71-9.78-2.69-8.23,1.04-17.19,8.78-21.07,2.58-1.29,4.99-2.99,7.13-4.98-.2-.46-.4-.95-.6-1.42-1.78-.8-3.44-1.89-4.89-3.26-3.6-3.41-5.59-8.19-5.47-13.15l.28-11.13c.17-6.9,4.33-12.82,10.28-15.51-2.89-3.85-4.07-8.73-3.24-13.49l1.91-11.02c1.45-8.37,8.7-14.49,17.19-14.51l54.08-.16h.05c2.67,0,5.26.61,7.61,1.74l23.37-.07.86-.18c3.9-.83,7.97-.3,11.52,1.5l9.11,4.6c4.2,2.12,7.37,5.84,8.79,10.33s.98,9.35-1.23,13.51c-2.11,3.97-4.48,7.79-7.1,11.47,3.33,3.33,5.19,7.87,5.13,12.61-.07,5.11-2.37,9.94-6.29,13.21l-5.78,4.82c0,1.65-.24,3.32-.73,4.95-1.09,3.65-3.31,6.77-6.25,8.98,1.13,1.66,2.36,2.98,3.37,3.71,4.67,3.34,7.4,8.75,7.32,14.48-.08,5.74-2.97,11.07-7.72,14.27-2.01,1.35-6.07,5.15-7.89,7.38-3.04,3.72-7.46,6.02-12.25,6.38-4.78.36-9.51-1.26-13.06-4.49-.21-.19-.42-.38-.62-.57-1.84,1.41-3.72,2.72-5.64,3.92-2.08,1.31-4.38,2.15-6.74,2.5-2.82,1.94-6.23,3.07-9.86,3.08l-16.08.05h-.05Z"/>
    <path class="cls-1" d="M1087.46,324.28c-2.37,0-4.74-.48-6.97-1.45-4.94-2.14-14.77-5.73-25.35-8.83-13.06,5.28-29.65,8.72-40.63,10.13-6.91.88-13.69-2.41-17.26-8.39-1.09-1.83-3.82-5.53-5.44-7.24-4.58-4.82-6.03-11.83-3.74-18.08,2.29-6.25,7.92-10.66,14.54-11.38.53-.06,1.06-.12,1.6-.19l1.88-10.83c-.58-.46-1.12-.95-1.64-1.48-3.51-3.6-5.3-8.54-4.92-13.55l.79-10.25c.25-3.2,1.34-6.14,3.06-8.62-1.81-3.4-2.46-7.34-1.79-11.21l3.13-18.07c1.45-8.37,8.7-14.49,17.19-14.51l27.19-.08c2.09-1.62,4.54-2.76,7.18-3.3l16.78-3.46c6.79-1.4,13.57,1.34,17.55,6.65l27.01-.08h.05c5.16,0,10.05,2.27,13.37,6.21,3.34,3.95,4.75,9.18,3.87,14.28l-3.13,18.07c-.45,2.58-1.45,4.95-2.86,6.99,0,.06-.02.12-.03.18l-1.32,7.6c-.62,3.57-2.3,6.74-4.67,9.19l-.49,2.83c-.8,4.6-3.34,8.51-6.88,11.11l-2.91,16.79c4.25,2.88,7.1,7.55,7.6,12.81.65,6.79-2.7,13.33-8.58,16.78l-15.32,8.96c-2.72,1.59-5.77,2.4-8.84,2.4Z"/>
    <path class="cls-1" d="M1118.18,321.11c-5.15,0-10.05-2.27-13.37-6.21-3.34-3.95-4.75-9.18-3.87-14.28l2.37-13.66c1.32-7.61,7.44-13.36,14.93-14.36l1.92-11.06c-3.43-4.71-4.3-10.85-2.26-16.36.5-1.34,1.14-2.6,1.93-3.75-.58-1.5-2.74-5.21-3.94-6.59-3.92-4.53-5.24-10.75-3.52-16.48,1.72-5.73,6.26-10.19,12.02-11.81,10.95-3.08,20.88-8.86,25.92-15.08,5.66-6.99,15.67-8.53,23.15-3.65,2.43-1.28,5.19-2,8.09-2.01l25.77-.07h.05c6.78,0,12.93,3.91,15.82,10.02.98,1.03,5.84,4.37,16.55,6.08,6.24,1,11.46,5.28,13.65,11.21,2.19,5.93,1.02,12.58-3.08,17.4-1.79,2.11-5.58,7.83-7.28,11.25-3.22,6.48-10,10.19-16.97,9.66.49.46.96.96,1.4,1.48,3.34,3.95,4.75,9.18,3.87,14.28l-1.24,7.15c1.91,1.03,3.62,2.41,5.05,4.11,3.34,3.95,4.75,9.18,3.87,14.28l-2.37,13.66c-1.45,8.37-8.7,14.49-17.19,14.51l-101.21.29h-.05ZM1223.36,196.16s0,0,0,0c0,0,0,0,0,0Z"/>
    <path class="cls-1" d="M1245.41,310.91c-3.4,0-6.8-.99-9.75-2.97l-.3-.2c-7.32-4.91-9.84-14.5-5.89-22.38l5.11-10.17-5.73-4.74c-4.84-4.01-7.16-10.3-6.08-16.49l.08-.47c1.46-8.36,8.7-14.46,17.19-14.49l12.62-.04,6.44-12.86c2.95-5.89,8.97-9.63,15.56-9.66h.4s.06,0,.09,0c8.63,0,15.97,6.29,17.29,14.82l1.17,7.58,8.35-.02h.05c5.16,0,10.06,2.28,13.38,6.22,3.34,3.96,4.75,9.19,3.86,14.29l-.08.47c-.84,4.8-3.64,9.03-7.73,11.67l-11.68,7.56,1.77,11.36c1.13,7.27-2.4,14.48-8.85,18.03l-.37.2c-6.3,3.47-14.08,2.73-19.62-1.87l-6.9-5.73-10.86,7.05c-2.9,1.88-6.22,2.82-9.53,2.82Z"/>
  </g>
</svg>